<svg width="15" height="20" viewBox="0 0 15 20" fill="none" xmlns="http://www.w3.org/2000/svg">
<path d="M13.75 17.5H7.71083C7.83 17.465 7.9425 17.4 8.03667 17.305L12.2758 12.9792C12.7542 12.495 12.415 11.6667 11.7392 11.6667H8.75V1.25C8.75 0.559167 8.19 0 7.5 0C6.81 0 6.25 0.559167 6.25 1.25V11.6667H3.26083C2.585 11.6667 2.24583 12.495 2.72417 12.9792L6.96333 17.305C7.0575 17.4 7.17 17.465 7.28917 17.5H1.25C0.56 17.5 0 18.0592 0 18.75C0 19.4408 0.56 20 1.25 20H13.75C14.44 20 15 19.4408 15 18.75C15 18.0592 14.44 17.5 13.75 17.5Z" fill="white"/>
</svg>
