<svg width="33" height="30" viewBox="0 0 33 30" fill="none" xmlns="http://www.w3.org/2000/svg">
<path d="M32.6645 6.19385L21.1855 17.6729C19.9055 18.9496 18.1715 19.6666 16.3636 19.6666C14.5558 19.6666 12.8218 18.9496 11.5418 17.6729L0.0627273 6.19385C0.0436364 6.4093 0 6.6043 0 6.81839V23.182C0.00216526 24.9897 0.721203 26.7226 1.99939 28.0008C3.27758 29.279 5.01055 29.998 6.81818 30.0002H25.9091C27.7167 29.998 29.4497 29.279 30.7279 28.0008C32.0061 26.7226 32.7251 24.9897 32.7273 23.182V6.81839C32.7273 6.6043 32.6836 6.4093 32.6645 6.19385Z" fill="#FF6F00"/>
<path d="M19.2584 15.7445L31.7138 3.28773C31.1104 2.28725 30.2594 1.45914 29.2429 0.883268C28.2263 0.307395 27.0785 0.00319182 25.9102 0H6.81926C5.65093 0.00319182 4.50313 0.307395 3.48657 0.883268C2.47001 1.45914 1.619 2.28725 1.01562 3.28773L13.4711 15.7445C14.2396 16.51 15.2801 16.9397 16.3647 16.9397C17.4494 16.9397 18.4898 16.51 19.2584 15.7445Z" fill="#FF6F00"/>
</svg>
