<svg width="22" height="20" viewBox="0 0 22 20" fill="none" xmlns="http://www.w3.org/2000/svg">
<path d="M21.7764 4.12927L14.1236 11.782C13.2703 12.6331 12.1143 13.1111 10.9091 13.1111C9.70387 13.1111 8.54784 12.6331 7.69455 11.782L0.0418182 4.12927C0.0290909 4.27291 0 4.40291 0 4.54564V15.4547C0.00144351 16.6598 0.480802 17.8151 1.33293 18.6673C2.18505 19.5194 3.34037 19.9987 4.54545 20.0002H17.2727C18.4778 19.9987 19.6331 19.5194 20.4853 18.6673C21.3374 17.8151 21.8167 16.6598 21.8182 15.4547V4.54564C21.8182 4.40291 21.7891 4.27291 21.7764 4.12927Z" fill="#9D92E4"/>
<path d="M12.8391 10.4964L21.1427 2.19182C20.7404 1.52484 20.1731 0.972761 19.4954 0.588846C18.8177 0.20493 18.0525 0.00212788 17.2736 0H4.54634C3.76745 0.00212788 3.00225 0.20493 2.32454 0.588846C1.64684 0.972761 1.0795 1.52484 0.677246 2.19182L8.98088 10.4964C9.49322 11.0066 10.1869 11.2932 10.91 11.2932C11.6331 11.2932 12.3267 11.0066 12.8391 10.4964Z" fill="#9D92E4"/>
</svg>
