<svg width="25" height="30" viewBox="0 0 25 30" fill="none" xmlns="http://www.w3.org/2000/svg">
<path d="M12.4762 0C9.16866 0.00363886 5.99759 1.31909 3.65866 3.65778C1.31974 5.99647 0.00397026 9.16741 0 12.475C0 15.6875 2.4875 20.715 7.39374 27.4175C7.97781 28.2176 8.74256 28.8686 9.62574 29.3173C10.5089 29.7661 11.4856 30 12.4762 30C13.4669 30 14.4435 29.7661 15.3267 29.3173C16.2099 28.8686 16.9746 28.2176 17.5587 27.4175C22.465 20.715 24.9525 15.6875 24.9525 12.475C24.9485 9.16741 23.6327 5.99647 21.2938 3.65778C18.9549 1.31909 15.7838 0.00363886 12.4762 0ZM12.4762 17.4475C11.4873 17.4475 10.5206 17.1542 9.69838 16.6048C8.87614 16.0554 8.23528 15.2745 7.85684 14.3609C7.4784 13.4473 7.37939 12.4419 7.57231 11.472C7.76524 10.5021 8.24144 9.61121 8.9407 8.91195C9.63996 8.21269 10.5309 7.73649 11.5008 7.54356C12.4707 7.35064 13.476 7.44965 14.3896 7.82809C15.3033 8.20653 16.0842 8.84739 16.6336 9.66963C17.183 10.4919 17.4762 11.4586 17.4762 12.4475C17.4762 13.7736 16.9494 15.0453 16.0118 15.983C15.0741 16.9207 13.8023 17.4475 12.4762 17.4475Z" fill="#FF6F00"/>
</svg>
