<svg width="20" height="20" viewBox="0 0 20 20" fill="none" xmlns="http://www.w3.org/2000/svg">
<path d="M19.997 5.20462C19.997 11.5693 11.5579 20 5.20158 20C3.81035 20 2.51076 19.4752 1.55272 18.5171L0.719649 17.5591C-0.246715 16.5927 -0.246715 14.9599 0.761303 13.9519C0.786295 13.9269 2.794 12.3857 2.794 12.3857C3.79369 11.436 5.3682 11.436 6.35955 12.3857L7.57584 13.3604C10.2417 12.2274 12.1327 10.328 13.349 7.57055L12.3827 6.35426C11.4246 5.36291 11.4246 3.78007 12.3827 2.78871C12.3827 2.78871 13.9239 0.781006 13.9488 0.756014C14.9569 -0.252005 16.5897 -0.252005 17.5977 0.756014L18.4724 1.51411C19.4721 2.50547 19.997 3.80506 19.997 5.19629V5.20462Z" fill="#9D92E4"/>
</svg>
