<svg width="30" height="30" viewBox="0 0 30 30" fill="none" xmlns="http://www.w3.org/2000/svg">
<path d="M30 7.80812C30 17.3566 17.3395 30.0046 7.80356 30.0046C5.71639 30.0046 3.76671 29.2172 2.32944 27.7799L1.07964 26.3427C-0.370129 24.8929 -0.37013 22.4433 1.14213 20.931C1.17962 20.8935 4.19164 18.5814 4.19164 18.5814C5.6914 17.1566 8.05352 17.1566 9.54078 18.5814L11.3655 20.0437C15.3648 18.3439 18.2019 15.4944 20.0266 11.3576L18.5768 9.53285C17.1396 8.04558 17.1396 5.67097 18.5768 4.1837C18.5768 4.1837 20.889 1.17169 20.9265 1.13419C22.4387 -0.378064 24.8883 -0.378064 26.4006 1.13419L27.7129 2.27151C29.2126 3.75877 30 5.70846 30 7.79563V7.80812Z" fill="#FF6F00"/>
</svg>
