<svg width="20" height="20" viewBox="0 0 20 20" fill="none" xmlns="http://www.w3.org/2000/svg">
<path d="M11.2498 9.99943C11.2498 10.6895 10.6898 11.2495 9.99976 11.2495C9.30972 11.2495 8.74969 10.6895 8.74969 9.99943C8.74969 9.30939 9.30972 8.74936 9.99976 8.74936C10.6898 8.74936 11.2498 9.30939 11.2498 9.99943ZM14.1667 8.74936C13.4766 8.74936 12.9166 9.30939 12.9166 9.99943C12.9166 10.6895 13.4766 11.2495 14.1667 11.2495C14.8567 11.2495 15.4167 10.6895 15.4167 9.99943C15.4167 9.30939 14.8567 8.74936 14.1667 8.74936ZM5.83286 8.74936C5.14282 8.74936 4.58279 9.30939 4.58279 9.99943C4.58279 10.6895 5.14282 11.2495 5.83286 11.2495C6.5229 11.2495 7.08293 10.6895 7.08293 9.99943C7.08293 9.30939 6.5229 8.74936 5.83286 8.74936ZM20.0003 10.2828V15.8331C20.0003 18.1307 18.1311 20 15.8334 20H10.9023C5.06782 20 0.390885 16.0064 0.0241972 10.7111C-0.176648 7.81431 0.880079 4.97915 2.92353 2.9332C4.96698 0.88725 7.80214 -0.17281 10.6965 0.0230345C15.9134 0.377221 20.0003 4.88331 20.0003 10.2828ZM18.3336 10.2828C18.3336 5.75669 14.93 1.98065 10.584 1.68563C10.3931 1.67229 10.2023 1.66646 10.0123 1.66646C7.7988 1.66646 5.67118 2.53984 4.10276 4.11077C2.39933 5.81586 1.51845 8.18016 1.68679 10.5961C1.99764 15.0797 5.87369 18.3341 10.9031 18.3341H15.8343C17.2127 18.3341 18.3344 17.2123 18.3344 15.8339V10.2836L18.3336 10.2828Z" fill="white"/>
</svg>
