<svg width="25" height="30" viewBox="0 0 25 30" fill="none" xmlns="http://www.w3.org/2000/svg">
<path d="M20.7259 2.67526L12.8948 0.06405C12.6384 -0.02135 12.3612 -0.02135 12.1048 0.06405L4.27244 2.67526C3.02757 3.08907 1.94475 3.88462 1.17778 4.9489C0.410818 6.01318 -0.00128882 7.29208 3.02792e-06 8.60392V15.0001C3.02792e-06 24.4537 11.4998 29.6748 11.9923 29.8923C12.1521 29.9633 12.325 30 12.4998 30C12.6746 30 12.8475 29.9633 13.0073 29.8923C13.4998 29.6748 24.9996 24.4537 24.9996 15.0001V8.60392C25.0008 7.29192 24.5885 6.01291 23.8213 4.94861C23.0541 3.88431 21.971 3.08886 20.7259 2.67526Z" fill="#FF6F00"/>
<path d="M19.9609 12.4321C19.8627 12.1283 19.5933 11.9126 19.2745 11.8839L14.9451 11.4908L13.2332 7.48375C13.107 7.19009 12.8195 7 12.5001 7C12.1806 7 11.8932 7.19009 11.7669 7.48444L10.055 11.4908L5.72488 11.8839C5.40673 11.9133 5.13802 12.1283 5.03925 12.4321C4.94049 12.7358 5.0317 13.0689 5.27237 13.2789L8.54489 16.149L7.5799 20.3997C7.50929 20.7123 7.6306 21.0354 7.88993 21.2228C8.02932 21.3235 8.1924 21.3748 8.35686 21.3748C8.49865 21.3748 8.63931 21.3366 8.76554 21.261L12.5001 19.0291L16.2332 21.261C16.5064 21.4254 16.8507 21.4104 17.1095 21.2228C17.3689 21.0348 17.4901 20.7116 17.4195 20.3997L16.4545 16.149L19.7271 13.2795C19.9677 13.0689 20.0596 12.7364 19.9609 12.4321Z" fill="#463D80"/>
</svg>
