<svg width="101" height="96" viewBox="0 0 101 96" fill="none" xmlns="http://www.w3.org/2000/svg">
<rect width="6" height="6" rx="3" fill="#FF6F00"/>
<rect x="19" width="6" height="6" rx="3" fill="#FF6F00"/>
<rect x="38" width="6" height="6" rx="3" fill="#FF6F00"/>
<rect x="57" width="6" height="6" rx="3" fill="#FF6F00"/>
<rect x="76" width="6" height="6" rx="3" fill="#FF6F00"/>
<rect x="95" width="6" height="6" rx="3" fill="#FF6F00"/>
<rect y="18" width="6" height="6" rx="3" fill="#FF6F00"/>
<rect x="19" y="18" width="6" height="6" rx="3" fill="#FF6F00"/>
<rect x="38" y="18" width="6" height="6" rx="3" fill="#FF6F00"/>
<rect x="57" y="18" width="6" height="6" rx="3" fill="#FF6F00"/>
<rect x="76" y="18" width="6" height="6" rx="3" fill="#FF6F00"/>
<rect x="95" y="18" width="6" height="6" rx="3" fill="#FF6F00"/>
<rect y="36" width="6" height="6" rx="3" fill="#FF6F00"/>
<rect x="19" y="36" width="6" height="6" rx="3" fill="#FF6F00"/>
<rect x="38" y="36" width="6" height="6" rx="3" fill="#FF6F00"/>
<rect x="57" y="36" width="6" height="6" rx="3" fill="#FF6F00"/>
<rect x="76" y="36" width="6" height="6" rx="3" fill="#FF6F00"/>
<rect x="95" y="36" width="6" height="6" rx="3" fill="#FF6F00"/>
<rect y="54" width="6" height="6" rx="3" fill="#FF6F00"/>
<rect x="19" y="54" width="6" height="6" rx="3" fill="#FF6F00"/>
<rect y="72" width="6" height="6" rx="3" fill="#FF6F00"/>
<rect x="19" y="72" width="6" height="6" rx="3" fill="#FF6F00"/>
<rect y="90" width="6" height="6" rx="3" fill="#FF6F00"/>
<rect x="19" y="90" width="6" height="6" rx="3" fill="#FF6F00"/>
</svg>
