<svg width="101" height="42" viewBox="0 0 101 42" fill="none" xmlns="http://www.w3.org/2000/svg">
<rect width="6" height="6" rx="3" fill="white"/>
<rect x="19" width="6" height="6" rx="3" fill="white"/>
<rect x="38" width="6" height="6" rx="3" fill="white"/>
<rect x="57" width="6" height="6" rx="3" fill="white"/>
<rect x="76" width="6" height="6" rx="3" fill="white"/>
<rect x="95" width="6" height="6" rx="3" fill="white"/>
<rect y="18" width="6" height="6" rx="3" fill="white"/>
<rect x="19" y="18" width="6" height="6" rx="3" fill="white"/>
<rect x="38" y="18" width="6" height="6" rx="3" fill="white"/>
<rect x="57" y="18" width="6" height="6" rx="3" fill="white"/>
<rect x="76" y="18" width="6" height="6" rx="3" fill="white"/>
<rect x="95" y="18" width="6" height="6" rx="3" fill="white"/>
<rect y="36" width="6" height="6" rx="3" fill="white"/>
<rect x="19" y="36" width="6" height="6" rx="3" fill="white"/>
<rect x="38" y="36" width="6" height="6" rx="3" fill="white"/>
<rect x="57" y="36" width="6" height="6" rx="3" fill="white"/>
<rect x="76" y="36" width="6" height="6" rx="3" fill="white"/>
<rect x="95" y="36" width="6" height="6" rx="3" fill="white"/>
</svg>
