<svg xmlns="http://www.w3.org/2000/svg" width="101" height="96" fill="none"><rect width="6" height="6" fill="#463D80" rx="3"/><rect width="6" height="6" x="19" fill="#463D80" rx="3"/><rect width="6" height="6" x="38" fill="#463D80" rx="3"/><rect width="6" height="6" x="57" fill="#463D80" rx="3"/><rect width="6" height="6" x="76" fill="#463D80" rx="3"/><rect width="6" height="6" x="95" fill="#463D80" rx="3"/><rect width="6" height="6" y="18" fill="#463D80" rx="3"/><rect width="6" height="6" x="19" y="18" fill="#463D80" rx="3"/><rect width="6" height="6" x="38" y="18" fill="#463D80" rx="3"/><rect width="6" height="6" x="57" y="18" fill="#463D80" rx="3"/><rect width="6" height="6" x="76" y="18" fill="#463D80" rx="3"/><rect width="6" height="6" x="95" y="18" fill="#463D80" rx="3"/><rect width="6" height="6" y="36" fill="#463D80" rx="3"/><rect width="6" height="6" x="19" y="36" fill="#463D80" rx="3"/><rect width="6" height="6" x="38" y="36" fill="#463D80" rx="3"/><rect width="6" height="6" x="57" y="36" fill="#463D80" rx="3"/><rect width="6" height="6" x="76" y="36" fill="#463D80" rx="3"/><rect width="6" height="6" x="95" y="36" fill="#463D80" rx="3"/><rect width="6" height="6" y="54" fill="#463D80" rx="3"/><rect width="6" height="6" x="19" y="54" fill="#463D80" rx="3"/><rect width="6" height="6" x="38" y="54" fill="#463D80" rx="3"/><rect width="6" height="6" x="57" y="54" fill="#463D80" rx="3"/><rect width="6" height="6" x="76" y="54" fill="#463D80" rx="3"/><rect width="6" height="6" x="95" y="54" fill="#463D80" rx="3"/><rect width="6" height="6" y="72" fill="#463D80" rx="3"/><rect width="6" height="6" x="19" y="72" fill="#463D80" rx="3"/><rect width="6" height="6" x="38" y="72" fill="#463D80" rx="3"/><rect width="6" height="6" x="57" y="72" fill="#463D80" rx="3"/><rect width="6" height="6" x="76" y="72" fill="#463D80" rx="3"/><rect width="6" height="6" x="95" y="72" fill="#463D80" rx="3"/><rect width="6" height="6" y="90" fill="#463D80" rx="3"/><rect width="6" height="6" x="19" y="90" fill="#463D80" rx="3"/><rect width="6" height="6" x="38" y="90" fill="#463D80" rx="3"/><rect width="6" height="6" x="57" y="90" fill="#463D80" rx="3"/><rect width="6" height="6" x="76" y="90" fill="#463D80" rx="3"/><rect width="6" height="6" x="95" y="90" fill="#463D80" rx="3"/></svg>