<svg width="56" height="47" viewBox="0 0 56 47" fill="none" xmlns="http://www.w3.org/2000/svg">
<path d="M1 12C5 14.1667 12.9 19.2 12.5 22C12.1 24.8 17.6667 27.1667 20.5 28C23 28.8333 28.3 31.5 29.5 35.5C30.7 39.5 35.6667 41.5 38 42C38.8333 42.5 40.8 44.1 42 46.5" stroke="#FF6F00"/>
<path d="M5 8C9 10.1667 16.9 15.2 16.5 18C16.1 20.8 21.6667 23.1667 24.5 24C27 24.8333 32.3 27.5 33.5 31.5C34.7 35.5 39.6667 37.5 42 38C42.8333 38.5 44.8 40.1 46 42.5" stroke="#FF6F00"/>
<path d="M10 5C14 7.16667 21.9 12.2 21.5 15C21.1 17.8 26.6667 20.1667 29.5 21C32 21.8333 37.3 24.5 38.5 28.5C39.7 32.5 44.6667 34.5 47 35C47.8333 35.5 49.8 37.1 51 39.5" stroke="#FF6F00"/>
<path d="M14 1C18 3.16667 25.9 8.2 25.5 11C25.1 13.8 30.6667 16.1667 33.5 17C36 17.8333 41.3 20.5 42.5 24.5C43.7 28.5 48.6667 30.5 51 31C51.8333 31.5 53.8 33.1 55 35.5" stroke="#FF6F00"/>
</svg>
