<svg width="453" height="98" viewBox="0 0 453 98" fill="none" xmlns="http://www.w3.org/2000/svg">
<g opacity="0.5">
<path d="M1 6.96324C5.03946 2.46324 16.1316 -3.83676 28.1845 6.96324C40.2373 17.7632 52.8579 11.4632 57.6616 6.96324" stroke="#DFDCF2"/>
<path d="M57.334 6.96324C61.3734 2.46324 72.4656 -3.83676 84.5184 6.96324C96.5713 17.7632 109.192 11.4632 113.996 6.96324" stroke="#DFDCF2"/>
<path d="M113.668 6.96324C117.707 2.46324 128.8 -3.83676 140.852 6.96324C152.905 17.7632 165.526 11.4632 170.33 6.96324" stroke="#DFDCF2"/>
<path d="M170.002 6.96324C174.041 2.46324 185.134 -3.83676 197.186 6.96324C209.239 17.7632 221.86 11.4632 226.664 6.96324" stroke="#DFDCF2"/>
<path d="M226.336 6.96324C230.375 2.46324 241.468 -3.83676 253.52 6.96324C265.573 17.7632 278.194 11.4632 282.998 6.96324" stroke="#DFDCF2"/>
<path d="M282.67 6.96324C286.71 2.46324 297.802 -3.83676 309.855 6.96324C321.908 17.7632 334.528 11.4632 339.332 6.96324" stroke="#DFDCF2"/>
<path d="M339.004 6.96324C343.044 2.46324 354.136 -3.83676 366.189 6.96324C378.242 17.7632 390.862 11.4632 395.666 6.96324" stroke="#DFDCF2"/>
<path d="M395.338 6.96324C399.378 2.46324 410.47 -3.83676 422.523 6.96324C434.576 17.7632 447.196 11.4632 452 6.96324" stroke="#DFDCF2"/>
<path d="M1 34.9632C5.03946 30.4632 16.1316 24.1632 28.1845 34.9632C40.2373 45.7632 52.8579 39.4632 57.6616 34.9632" stroke="#DFDCF2"/>
<path d="M57.334 34.9632C61.3734 30.4632 72.4656 24.1632 84.5184 34.9632C96.5713 45.7632 109.192 39.4632 113.996 34.9632" stroke="#DFDCF2"/>
<path d="M113.668 34.9632C117.707 30.4632 128.8 24.1632 140.852 34.9632C152.905 45.7632 165.526 39.4632 170.33 34.9632" stroke="#DFDCF2"/>
<path d="M170.002 34.9632C174.041 30.4632 185.134 24.1632 197.186 34.9632C209.239 45.7632 221.86 39.4632 226.664 34.9632" stroke="#DFDCF2"/>
<path d="M226.336 34.9632C230.375 30.4632 241.468 24.1632 253.52 34.9632C265.573 45.7632 278.194 39.4632 282.998 34.9632" stroke="#DFDCF2"/>
<path d="M282.67 34.9632C286.71 30.4632 297.802 24.1632 309.855 34.9632C321.908 45.7632 334.528 39.4632 339.332 34.9632" stroke="#DFDCF2"/>
<path d="M339.004 34.9632C343.044 30.4632 354.136 24.1632 366.189 34.9632C378.242 45.7632 390.862 39.4632 395.666 34.9632" stroke="#DFDCF2"/>
<path d="M395.338 34.9632C399.378 30.4632 410.47 24.1632 422.523 34.9632C434.576 45.7632 447.196 39.4632 452 34.9632" stroke="#DFDCF2"/>
<path d="M1 62.9632C5.03946 58.4632 16.1316 52.1632 28.1845 62.9632C40.2373 73.7632 52.8579 67.4632 57.6616 62.9632" stroke="#DFDCF2"/>
<path d="M57.334 62.9632C61.3734 58.4632 72.4656 52.1632 84.5184 62.9632C96.5713 73.7632 109.192 67.4632 113.996 62.9632" stroke="#DFDCF2"/>
<path d="M113.668 62.9632C117.707 58.4632 128.8 52.1632 140.852 62.9632C152.905 73.7632 165.526 67.4632 170.33 62.9632" stroke="#DFDCF2"/>
<path d="M170.002 62.9632C174.041 58.4632 185.134 52.1632 197.186 62.9632C209.239 73.7632 221.86 67.4632 226.664 62.9632" stroke="#DFDCF2"/>
<path d="M226.336 62.9632C230.375 58.4632 241.468 52.1632 253.52 62.9632C265.573 73.7632 278.194 67.4632 282.998 62.9632" stroke="#DFDCF2"/>
<path d="M282.67 62.9632C286.71 58.4632 297.802 52.1632 309.855 62.9632C321.908 73.7632 334.528 67.4632 339.332 62.9632" stroke="#DFDCF2"/>
<path d="M339.004 62.9632C343.044 58.4632 354.136 52.1632 366.189 62.9632C378.242 73.7632 390.862 67.4632 395.666 62.9632" stroke="#DFDCF2"/>
<path d="M395.338 62.9632C399.378 58.4632 410.47 52.1632 422.523 62.9632C434.576 73.7632 447.196 67.4632 452 62.9632" stroke="#DFDCF2"/>
<path d="M1 90.9632C5.03946 86.4632 16.1316 80.1632 28.1845 90.9632C40.2373 101.763 52.8579 95.4632 57.6616 90.9632" stroke="#DFDCF2"/>
<path d="M57.334 90.9632C61.3734 86.4632 72.4656 80.1632 84.5184 90.9632C96.5713 101.763 109.192 95.4632 113.996 90.9632" stroke="#DFDCF2"/>
<path d="M113.668 90.9632C117.707 86.4632 128.8 80.1632 140.852 90.9632C152.905 101.763 165.526 95.4632 170.33 90.9632" stroke="#DFDCF2"/>
<path d="M170.002 90.9632C174.041 86.4632 185.134 80.1632 197.186 90.9632C209.239 101.763 221.86 95.4632 226.664 90.9632" stroke="#DFDCF2"/>
<path d="M226.336 90.9632C230.375 86.4632 241.468 80.1632 253.52 90.9632C265.573 101.763 278.194 95.4632 282.998 90.9632" stroke="#DFDCF2"/>
<path d="M282.67 90.9632C286.71 86.4632 297.802 80.1632 309.855 90.9632C321.908 101.763 334.528 95.4632 339.332 90.9632" stroke="#DFDCF2"/>
<path d="M339.004 90.9632C343.044 86.4632 354.136 80.1632 366.189 90.9632C378.242 101.763 390.862 95.4632 395.666 90.9632" stroke="#DFDCF2"/>
<path d="M395.338 90.9632C399.378 86.4632 410.47 80.1632 422.523 90.9632C434.576 101.763 447.196 95.4632 452 90.9632" stroke="#DFDCF2"/>
</g>
</svg>
