<svg width="37" height="40" viewBox="0 0 37 40" fill="none" xmlns="http://www.w3.org/2000/svg">
<path d="M29.4545 3.63636L32 6.18182C30.9091 9.09091 29.6364 14.1818 30.9091 20.7273C32 26 30.1818 27.0909 25.2727 29.8182C23.0909 31.0909 20.5455 32.5455 18.1818 34.7273C15.8182 32.5455 13.2727 31.0909 11.0909 29.8182C6.18182 27.0909 4.36364 26 5.45455 20.7273C6.72727 14.1818 5.45455 9.09091 4.36364 6.18182L6.90909 3.63636H29.4545ZM30.9091 0H5.45455L0 5.45455C0 5.45455 3.63636 10.9091 1.81818 20C-0.727273 32.5455 10.9091 30.9091 18.1818 40C25.4545 30.9091 37.0909 32.5455 34.5455 20C32.7273 10.9091 36.3636 5.45455 36.3636 5.45455L30.9091 0Z" fill="white"/>
<path d="M16.346 9.094V22.272C16.346 22.492 16.3973 22.6533 16.5 22.756C16.6173 22.8587 16.8667 22.91 17.248 22.91H18.876V25H16.082C15.4953 25 15.004 24.956 14.608 24.868C14.2267 24.78 13.8893 24.604 13.596 24.34C13.3173 24.0613 13.0973 23.7533 12.936 23.416C12.7893 23.0787 12.672 22.5727 12.584 21.898C12.452 20.886 12.386 19.5293 12.386 17.828C12.386 16.112 12.3933 14.902 12.408 14.198C12.4373 13.494 12.496 12.812 12.584 12.152C12.672 11.4773 12.7893 10.9787 12.936 10.656C13.0973 10.3187 13.3173 10.018 13.596 9.754C13.8893 9.47533 14.2267 9.29933 14.608 9.226C15.004 9.138 15.4953 9.094 16.082 9.094H16.346ZM17.226 16.332H21.098C22.5353 16.332 23.254 16.992 23.254 18.312V22.888C23.254 23.7973 23.1807 24.3767 23.034 24.626C22.902 24.8753 22.506 25 21.846 25H19.756V19.06C19.756 18.8253 19.7193 18.664 19.646 18.576C19.5873 18.4733 19.426 18.422 19.162 18.422H17.226V16.332ZM17.226 9.094H20.02C21.0907 9.094 21.8973 9.27733 22.44 9.644C22.9973 10.0107 23.276 10.6487 23.276 11.558V13.538C23.276 13.846 23.1733 14 22.968 14H20.196C19.9907 14 19.866 13.9707 19.822 13.912C19.778 13.8533 19.756 13.7287 19.756 13.538V11.822C19.756 11.5873 19.7193 11.426 19.646 11.338C19.5873 11.2353 19.426 11.184 19.162 11.184H17.226V9.094Z" fill="white"/>
</svg>
